<?xml version="1.0" encoding="utf-8"?>
<!-- Generator: Adobe Illustrator 16.0.0, SVG Export Plug-In . SVG Version: 6.00 Build 0)  -->
<!DOCTYPE svg PUBLIC "-//W3C//DTD SVG 1.1//EN" "http://www.w3.org/Graphics/SVG/1.1/DTD/svg11.dtd">
<svg version="1.1" id="Layer_1" xmlns="http://www.w3.org/2000/svg" xmlns:xlink="http://www.w3.org/1999/xlink" x="0px" y="0px"
	 width="420.277px" height="511px" viewBox="0 0 420.277 511" enable-background="new 0 0 420.277 511" xml:space="preserve">
<g>
	<path fill="#FFFFFF" d="M180.948,112.998c2.99,0.3,5.988,0.9,8.982,2.097c22.897,8.438,35.723,33.978,26.95,57.793
		c-8.112,22.499-33.324,35.181-57.497,26.655c-23.357-8.386-35.337-34.14-26.951-57.497c3.594-9.883,9.883-17.668,18.865-23.06
		c-0.296-4.191-0.601-8.683-0.601-13.178c0-20.362,3.895-38.928,10.784-54.803c-51.041,0-103.594,32.99-123.68,88.343
		c-15.571,42.522-8.382,89.84,17.969,125.773L1.869,414.354c-1.497,3.596-1.201,7.786,0.597,11.382l35.637,76.662
		c3.373,6.744,11.275,10.95,20.063,7.188l76.663-35.638c7.485-3.595,10.784-12.577,7.189-20.063l-11.38-24.856l24.557-11.38
		c7.485-3.592,10.78-12.577,7.485-20.063l-11.676-24.554l24.854-11.682c3.59-1.797,6.285-4.791,7.782-8.385l12.881-36.336
		c43.419-10.779,79.057-42.822,94.627-85.044c24.943-68.752-9.259-146.627-80.553-172.491c-5.692-2.097-11.38-3.895-17.072-4.792
		c-8.086,13.474-12.877,31.743-12.877,51.505C180.645,108.207,180.645,110.6,180.948,112.998z"/>
	<path fill="#FFFFFF" d="M169.564,171.392c7.786,2.994,16.472-1.197,19.166-8.982c2.491-7.47-0.674-15.973-8.982-19.166
		c-6.939-2.779-15.79,0.874-19.166,8.982C157.869,159.286,161.26,168.838,169.564,171.392z"/>
	<path fill="#FFFFFF" d="M225.564,0c-29.778,0-52.526,23.563-64.086,51.006c10.784-0.597,21.563,0.6,32.043,3.298
		c6.912-12.386,18.035-24.358,32.043-24.358c9.282,0,18.27,6.69,26.055,15.973c63.313,39.396,95.102,120.152,67.68,195.848
		c-15.574,42.522-47.317,76.063-87.742,94.031l5.988,17.17c1.496,3.595,4.19,6.589,7.781,8.386l24.857,11.677l-11.68,24.558
		c-3.295,7.485,0,16.473,7.488,20.063l24.555,11.38l-11.381,24.856c-3.59,7.485-0.297,16.469,7.188,20.063l76.663,35.634
		c8.588,3.68,16.592-0.246,20.064-7.186l35.635-76.662c1.797-3.596,2.098-7.786,0.602-11.381l-53.906-149.231
		c26.354-35.934,33.539-83.251,17.969-125.773c-14.195-39.119-45.953-71.388-92.234-83.852C278.273,22.261,253.416,0,225.564,0z"/>
</g>
</svg>
