<?xml version="1.0" encoding="utf-8"?>
<!-- Generator: Adobe Illustrator 16.0.0, SVG Export Plug-In . SVG Version: 6.00 Build 0)  -->
<!DOCTYPE svg PUBLIC "-//W3C//DTD SVG 1.1//EN" "http://www.w3.org/Graphics/SVG/1.1/DTD/svg11.dtd">
<svg version="1.1" id="Layer_1" xmlns="http://www.w3.org/2000/svg" xmlns:xlink="http://www.w3.org/1999/xlink" x="0px" y="0px"
	 width="537.938px" height="115.167px" viewBox="0 0 537.938 115.167" enable-background="new 0 0 537.938 115.167"
	 xml:space="preserve">
<g>
	<path fill="#FFFFFF" d="M159.538,87.39V37.946h9.231v22.844l16.537-22.843h10.593l-13.914,18.031l16.238,31.414h-10.592
		l-11.855-23.41l-7.006,8.932v14.48h-9.232V87.39L159.538,87.39z"/>
	<path fill="#FFFFFF" d="M204.964,87.39V37.946h32.11v8.035h-22.846v11.692h16.636v7.9h-16.636v13.383h23.842v8.436h-33.106V87.39
		L204.964,87.39z"/>
	<path fill="#FFFFFF" d="M254.607,87.39V67.867l-14.345-29.918h9.796l9.53,20.555l9.363-20.555h9.133L263.938,67.8v19.592h-9.331
		V87.39L254.607,87.39z"/>
	<path fill="#FFFFFF" d="M283.727,87.39V37.946h9.299v19.592h18.861V37.946h9.297V87.39h-9.297V65.908h-18.861V87.39H283.727z"/>
	<path fill="#FFFFFF" d="M332.473,87.39V37.946h32.109v8.035h-22.846v11.692h16.637v7.9h-16.637v13.383h23.84v8.436h-33.104
		L332.473,87.39L332.473,87.39z"/>
	<path fill="#FFFFFF" d="M373.152,87.39V37.946h16.733c6.265,0,10.927,1.212,13.979,3.636c3.057,2.423,4.582,6.139,4.582,11.14
		c0,3.211-0.785,5.89-2.355,8.037c-1.572,2.146-3.828,3.631-6.772,4.449l10.957,22.184h-9.994l-9.529-20.059h-8.502v20.059h-9.098
		L373.152,87.39L373.152,87.39z M382.25,59.498h8.104c2.988,0,5.187-0.553,6.593-1.662c1.403-1.105,2.106-2.842,2.106-5.212
		c0-2.346-0.703-4.072-2.106-5.18c-1.406-1.107-3.604-1.66-6.593-1.66h-8.104V59.498z"/>
	<path fill="#FFFFFF" d="M415.521,62.785c0-7.991,1.813-14.228,5.444-18.71c3.631-4.482,8.652-6.725,15.074-6.725
		c6.42,0,11.451,2.242,15.094,6.725c3.644,4.484,5.463,10.721,5.463,18.71c0,7.947-1.825,14.176-5.479,18.682
		c-3.652,4.504-8.68,6.756-15.076,6.756c-6.375,0-11.391-2.252-15.043-6.756C417.348,76.958,415.521,70.732,415.521,62.785z
		 M424.953,62.785c0,5.604,0.938,9.846,2.822,12.734c1.881,2.891,4.635,4.332,8.268,4.332c3.631,0,6.389-1.441,8.27-4.332
		c1.882-2.893,2.822-7.137,2.822-12.734c0-5.646-0.94-9.927-2.822-12.85c-1.881-2.922-4.639-4.383-8.27-4.383
		c-3.633,0-6.387,1.46-8.268,4.383C425.891,52.856,424.953,57.141,424.953,62.785z"/>
	<path fill="#FFFFFF" d="M464.898,87.39V37.946h32.108v8.035h-22.846v11.692h16.637v7.9h-16.637v13.383h23.842v8.436h-33.104V87.39z
		"/>
	<path fill="#FFFFFF" d="M501.889,76.232l8.437-3.752c1.309,2.637,2.764,4.555,4.367,5.762c1.603,1.207,3.502,1.811,5.694,1.811
		c2.479,0,4.437-0.563,5.875-1.693c1.438-1.129,2.158-2.654,2.158-4.582c0-1.525-0.531-2.805-1.596-3.834
		c-1.063-1.029-2.978-2.055-5.742-3.07c-0.379-0.156-0.92-0.354-1.629-0.6c-4.85-1.771-8.226-3.275-10.127-4.518
		c-1.883-1.193-3.32-2.721-4.314-4.58c-0.996-1.861-1.494-3.963-1.494-6.312c0-3.983,1.488-7.222,4.466-9.711
		c2.979-2.491,6.868-3.736,11.674-3.736c4.205,0,7.707,0.907,10.508,2.723c2.801,1.815,4.854,4.505,6.16,8.07l-8.437,3.087
		c-1.039-2.212-2.27-3.823-3.688-4.832c-1.416-1.006-3.164-1.509-5.244-1.509c-2.016,0-3.604,0.471-4.766,1.41
		c-1.164,0.942-1.744,2.221-1.744,3.836c0,2.502,2.848,4.869,8.535,7.106c1.745,0.687,3.118,1.237,4.116,1.657
		c4.759,2.018,7.998,4.074,9.714,6.178c1.715,2.104,2.571,4.85,2.571,8.234c0,4.563-1.494,8.146-4.481,10.758
		c-2.99,2.613-7.097,3.918-12.32,3.918c-4.537,0-8.385-0.992-11.537-2.982C505.891,83.074,503.504,80.128,501.889,76.232z"/>
	<g>
		<rect x="60.015" y="53.143" fill="#FFFFFF" width="12.286" height="12.287"/>
		<polygon fill="#FFFFFF" points="105.305,23.404 105.305,4 93.019,4 93.019,11.12 		"/>
		<path fill="#FFFFFF" d="M30.345,67.724c9.044,0,16.401,7.357,16.401,16.4s-7.357,16.396-16.401,16.396
			c-9.043,0-16.4-7.354-16.4-16.396C13.945,75.083,21.302,67.724,30.345,67.724 M30.345,54.458
			c-16.385,0-29.668,13.284-29.668,29.667c0,16.385,13.283,29.666,29.668,29.666c16.386,0,29.669-13.281,29.669-29.666
			C60.015,67.742,46.732,54.458,30.345,54.458L30.345,54.458z"/>
		<rect x="58.041" y="77.265" fill="#FFFFFF" width="63.239" height="14.799"/>
		<g>
			<path fill="#FFFFFF" d="M28.575,47.999c5.312,0,9.106,0.555,13.867,2.779l1.436-1.314L74.591,18.75l30.714,30.713V73.63h6.143
				V55.606l1.8,1.8c2.399,2.396,6.287,2.396,8.686,0c2.399-2.399,2.399-6.287,0-8.685L74.59,1.376L27.961,48.005
				C28.166,48.004,28.37,47.999,28.575,47.999z"/>
			<rect x="80.733" y="53.143" fill="#FFFFFF" width="12.285" height="20.49"/>
		</g>
		<rect x="77.416" y="87.958" fill="#FFFFFF" width="14.935" height="20.188"/>
		<rect x="107.757" y="87.958" fill="#FFFFFF" width="13.522" height="20.188"/>
		<rect x="96.59" y="77.871" fill="#FFFFFF" width="8.072" height="20.184"/>
	</g>
	<rect x="293.025" y="57.539" fill="#F8A81B" width="18.86" height="8.369"/>
</g>
</svg>
