<?xml version="1.0" encoding="utf-8"?>
<!-- Generator: Adobe Illustrator 16.0.0, SVG Export Plug-In . SVG Version: 6.00 Build 0)  -->
<!DOCTYPE svg PUBLIC "-//W3C//DTD SVG 1.1//EN" "http://www.w3.org/Graphics/SVG/1.1/DTD/svg11.dtd">
<svg version="1.1" id="Capa_1" xmlns="http://www.w3.org/2000/svg" xmlns:xlink="http://www.w3.org/1999/xlink" x="0px" y="0px"
	 width="600px" height="600px" viewBox="0 0 600 600" enable-background="new 0 0 600 600" xml:space="preserve">
<path fill="#E0AD3B" d="M300,0C134.584,0,0,134.573,0,300s134.584,300,300,300c165.415,0,300-134.573,300-300S465.415,0,300,0z
	 M444.23,323.077H323.077V450c0,12.738-10.339,23.077-23.077,23.077S276.923,462.738,276.923,450V323.077H155.769
	c-12.738,0-23.077-10.339-23.077-23.077s10.338-23.077,23.077-23.077h121.154V161.539c0-12.739,10.339-23.077,23.077-23.077
	s23.077,10.338,23.077,23.077v115.384H444.23c12.738,0,23.077,10.339,23.077,23.077S456.969,323.077,444.23,323.077z"/>
</svg>
